<mxfile host="app.diagrams.net" modified="2022-08-23T17:25:23.888Z" agent="5.0 (Macintosh; Intel Mac OS X 10_15_7) AppleWebKit/605.1.15 (KHTML, like Gecko) Version/15.6 Safari/605.1.15" etag="TPPQozzWDnnQG82pGsCy" version="20.2.6" type="github">
  <diagram id="IP0gO1VmfP8Zahwi0N1H" name="Page-1">
    <mxGraphModel dx="896" dy="496" grid="1" gridSize="10" guides="1" tooltips="1" connect="1" arrows="1" fold="1" page="1" pageScale="1" pageWidth="827" pageHeight="1169" math="0" shadow="0">
      <root>
        <mxCell id="0" />
        <mxCell id="1" parent="0" />
        <mxCell id="CMdCtWPAHTPmnLJE-Hyq-1" value="Inicio" style="strokeWidth=2;html=1;shape=mxgraph.flowchart.terminator;whiteSpace=wrap;" vertex="1" parent="1">
          <mxGeometry x="220" y="50" width="100" height="40" as="geometry" />
        </mxCell>
        <mxCell id="CMdCtWPAHTPmnLJE-Hyq-2" value="&lt;div style=&quot;text-align: start;&quot;&gt;&lt;font style=&quot;font-size: 14px;&quot;&gt;dolares&lt;/font&gt;&lt;br&gt;&lt;/div&gt;" style="shape=parallelogram;html=1;strokeWidth=2;perimeter=parallelogramPerimeter;whiteSpace=wrap;rounded=1;arcSize=12;size=0.23;" vertex="1" parent="1">
          <mxGeometry x="140" y="205" width="260" height="35" as="geometry" />
        </mxCell>
        <mxCell id="CMdCtWPAHTPmnLJE-Hyq-3" value="v_euros&lt;br&gt;v_australianos&lt;br&gt;v_mexicanos&lt;br&gt;v_colombianos" style="strokeWidth=2;html=1;shape=mxgraph.flowchart.document2;whiteSpace=wrap;size=0.21413051060267857;" vertex="1" parent="1">
          <mxGeometry x="210" y="370" width="120" height="70" as="geometry" />
        </mxCell>
        <mxCell id="CMdCtWPAHTPmnLJE-Hyq-4" value="Fin" style="strokeWidth=2;html=1;shape=mxgraph.flowchart.terminator;whiteSpace=wrap;" vertex="1" parent="1">
          <mxGeometry x="220" y="470" width="100" height="40" as="geometry" />
        </mxCell>
        <mxCell id="CMdCtWPAHTPmnLJE-Hyq-5" value="" style="endArrow=classic;html=1;rounded=0;exitX=0.5;exitY=1;exitDx=0;exitDy=0;exitPerimeter=0;entryX=0.5;entryY=0;entryDx=0;entryDy=0;" edge="1" parent="1" source="CMdCtWPAHTPmnLJE-Hyq-1" target="CMdCtWPAHTPmnLJE-Hyq-13">
          <mxGeometry width="50" height="50" relative="1" as="geometry">
            <mxPoint x="246" y="410" as="sourcePoint" />
            <mxPoint x="380" y="140" as="targetPoint" />
          </mxGeometry>
        </mxCell>
        <mxCell id="CMdCtWPAHTPmnLJE-Hyq-6" value="" style="endArrow=classic;html=1;rounded=0;exitX=0.5;exitY=1;exitDx=0;exitDy=0;entryX=0.5;entryY=0;entryDx=0;entryDy=0;" edge="1" parent="1" source="CMdCtWPAHTPmnLJE-Hyq-2" target="CMdCtWPAHTPmnLJE-Hyq-11">
          <mxGeometry width="50" height="50" relative="1" as="geometry">
            <mxPoint x="416" y="270" as="sourcePoint" />
            <mxPoint x="270" y="290" as="targetPoint" />
          </mxGeometry>
        </mxCell>
        <mxCell id="CMdCtWPAHTPmnLJE-Hyq-7" value="" style="endArrow=classic;html=1;rounded=0;entryX=0.5;entryY=0;entryDx=0;entryDy=0;entryPerimeter=0;" edge="1" parent="1" source="CMdCtWPAHTPmnLJE-Hyq-3" target="CMdCtWPAHTPmnLJE-Hyq-4">
          <mxGeometry width="50" height="50" relative="1" as="geometry">
            <mxPoint x="246" y="650" as="sourcePoint" />
            <mxPoint x="276" y="470" as="targetPoint" />
          </mxGeometry>
        </mxCell>
        <mxCell id="CMdCtWPAHTPmnLJE-Hyq-8" value="&lt;meta charset=&quot;utf-8&quot;&gt;&lt;div style=&quot;font-style: normal; font-variant-caps: normal; font-weight: normal; letter-spacing: normal; text-align: start; text-indent: 0px; text-transform: none; word-spacing: 0px; -webkit-text-stroke-width: 0px; text-decoration: none; color: rgb(171, 178, 191); background-color: rgb(40, 44, 52); font-family: &amp;quot;Fira Code&amp;quot;, &amp;quot;Menlo for Powerline&amp;quot;, Menlo, Monaco, &amp;quot;Courier New&amp;quot;, monospace; font-size: 12px; line-height: 18px;&quot;&gt;&lt;div&gt;&lt;span style=&quot;color: rgb(127, 132, 142); font-style: italic;&quot;&gt;DeclaraciÃ³n de variables e ingrese de datos&lt;/span&gt;&lt;/div&gt;&lt;/div&gt;" style="text;whiteSpace=wrap;html=1;" vertex="1" parent="1">
          <mxGeometry x="430" y="160" width="340" height="40" as="geometry" />
        </mxCell>
        <mxCell id="CMdCtWPAHTPmnLJE-Hyq-9" value="&lt;div style=&quot;font-style: normal; font-variant-caps: normal; font-weight: normal; letter-spacing: normal; text-align: start; text-indent: 0px; text-transform: none; word-spacing: 0px; -webkit-text-stroke-width: 0px; text-decoration: none; color: rgb(171, 178, 191); background-color: rgb(40, 44, 52); font-family: &amp;quot;Fira Code&amp;quot;, &amp;quot;Menlo for Powerline&amp;quot;, Menlo, Monaco, &amp;quot;Courier New&amp;quot;, monospace; font-size: 12px; line-height: 18px;&quot;&gt;&lt;div&gt;&lt;span style=&quot;color: rgb(127, 132, 142); font-style: italic;&quot;&gt;Mostrar resultados al usuario&lt;/span&gt;&lt;/div&gt;&lt;/div&gt;" style="text;whiteSpace=wrap;html=1;" vertex="1" parent="1">
          <mxGeometry x="355" y="385" width="240" height="40" as="geometry" />
        </mxCell>
        <mxCell id="CMdCtWPAHTPmnLJE-Hyq-10" style="edgeStyle=orthogonalEdgeStyle;rounded=0;orthogonalLoop=1;jettySize=auto;html=1;exitX=0.5;exitY=1;exitDx=0;exitDy=0;entryX=0.5;entryY=0;entryDx=0;entryDy=0;entryPerimeter=0;" edge="1" parent="1" source="CMdCtWPAHTPmnLJE-Hyq-11" target="CMdCtWPAHTPmnLJE-Hyq-3">
          <mxGeometry relative="1" as="geometry" />
        </mxCell>
        <mxCell id="CMdCtWPAHTPmnLJE-Hyq-11" value="&lt;div&gt;v_euros = 0.83 * dolares&lt;/div&gt;&lt;div&gt;v_australianos = 1.44 * dolares&amp;nbsp;&lt;/div&gt;&lt;div&gt;v_mexicanos = 20.01 * dolares&amp;nbsp;&lt;/div&gt;&lt;div&gt;v_colombianos = 4362.18 * dolares&amp;nbsp;&lt;/div&gt;" style="rounded=1;whiteSpace=wrap;html=1;absoluteArcSize=1;arcSize=14;strokeWidth=2;" vertex="1" parent="1">
          <mxGeometry x="147.5" y="270" width="245" height="70" as="geometry" />
        </mxCell>
        <mxCell id="CMdCtWPAHTPmnLJE-Hyq-12" value="&lt;div style=&quot;font-style: normal; font-variant-caps: normal; font-weight: normal; letter-spacing: normal; text-align: start; text-indent: 0px; text-transform: none; word-spacing: 0px; -webkit-text-stroke-width: 0px; text-decoration: none; color: rgb(171, 178, 191); background-color: rgb(40, 44, 52); font-family: &amp;quot;Fira Code&amp;quot;, &amp;quot;Menlo for Powerline&amp;quot;, Menlo, Monaco, &amp;quot;Courier New&amp;quot;, monospace; font-size: 12px; line-height: 18px;&quot;&gt;&lt;div&gt;&lt;span style=&quot;color: rgb(127, 132, 142); font-style: italic;&quot;&gt;Desarrollo de operaciones&lt;/span&gt;&lt;/div&gt;&lt;/div&gt;" style="text;whiteSpace=wrap;html=1;" vertex="1" parent="1">
          <mxGeometry x="430" y="285" width="210" height="40" as="geometry" />
        </mxCell>
        <mxCell id="CMdCtWPAHTPmnLJE-Hyq-15" style="edgeStyle=orthogonalEdgeStyle;rounded=0;orthogonalLoop=1;jettySize=auto;html=1;exitX=0.5;exitY=1;exitDx=0;exitDy=0;entryX=0.5;entryY=0;entryDx=0;entryDy=0;" edge="1" parent="1" source="CMdCtWPAHTPmnLJE-Hyq-13" target="CMdCtWPAHTPmnLJE-Hyq-2">
          <mxGeometry relative="1" as="geometry" />
        </mxCell>
        <mxCell id="CMdCtWPAHTPmnLJE-Hyq-13" value="&lt;div&gt;e_euros = 0.83&lt;/div&gt;&lt;div&gt;e_australianos = 1.44&lt;/div&gt;&lt;div&gt;e_mexicanos = 20.01&lt;/div&gt;&lt;div style=&quot;&quot;&gt;e_colombianos = 4362.18&lt;/div&gt;" style="rounded=1;whiteSpace=wrap;html=1;absoluteArcSize=1;arcSize=14;strokeWidth=2;" vertex="1" parent="1">
          <mxGeometry x="185" y="110" width="170" height="70" as="geometry" />
        </mxCell>
      </root>
    </mxGraphModel>
  </diagram>
</mxfile>
